<svg id="Layer_1" data-name="Layer 1" xmlns="http://www.w3.org/2000/svg" viewBox="0 0 595.3 283"><defs><style>.cls-1{fill:#fff;}</style></defs><title>Artboard 1</title><path class="cls-1" d="M205.2,121.3a.48.48,0,0,0,.7,0c.3-.3,35-32.9,106.7-87.3a.5.5,0,0,0-.6-.8c-35.9,24.9-82.2,50.1-127.8,72.6a75.81,75.81,0,0,0-14.6-5.2c7.4-6,44.6-36.3,44.6-36.3a.76.76,0,0,0,.2-.4.37.37,0,0,0-.1-.3.49.49,0,0,0-.7-.1c-1.8,1.3-40.3,29.4-47.2,34.5a39,39,0,0,1-4.6-10.2c-.4-1.5-.7-3.1-1-4.6,12.9-24.9,30.3-58.4,30.3-58.4l.1-.2a.52.52,0,0,0-.2-.4c-.2-.2-.5-.1-.7,0-20.3,17.9-31,36.4-31,53.4a33.93,33.93,0,0,0,.4,5.5c-3.5,6.8-4.3,8.3-8.3,15.9a63.79,63.79,0,0,0-10.4,1.4c-1.9.4-3.7.9-5.4,1.4-.1-.4-.1-.9-.2-1.3-.2-3.7-.5-7.5-.8-11.3a109.66,109.66,0,0,0,5-31.9c0-17.7-5.1-35.5-18.5-49.5a.47.47,0,0,0-.6-.1.55.55,0,0,0-.3.5v.1a504.06,504.06,0,0,1,13.3,80.9c-.1.3-.1.5-.2.8-3.6-14.1-10.5-28.5-22.2-42.8-.1-.2-.4-.2-.6-.2a.55.55,0,0,0-.3.5v.1c2.3,17.7,5.8,37.1,13.2,56.5C114.1,98,105.1,92.6,97,88.4a.66.66,0,0,0-.7.2.62.62,0,0,0,.1.7c.2.1,18.5,14,16.5,24.4a1.42,1.42,0,0,0,.2.6.47.47,0,0,0,.6-.1,58.94,58.94,0,0,1,11-6.8c.2.6.5,1.2.7,1.8-1,2-2.1,4-3.2,5.8a57.8,57.8,0,0,1-12.4.4l-14.3-7.9c-17-18-34.8-36.8-34.8-36.8a.59.59,0,0,0-.7-.1.4.4,0,0,0-.2.4v.2A96.11,96.11,0,0,0,72,94.5L28.8,70.7a.53.53,0,0,0-.7.2.49.49,0,0,0,.1.7c.3.3,33.1,27.5,30.9,44.3,0,.5,0,.5,3.7,1.2l8.7,1.7,26.4,5,14.1,2.7a9.42,9.42,0,0,0,1,1c-6.9,7.9-14.1,12.4-19.9,11.8a18.42,18.42,0,0,0-.5-2.5c-1.7-6-5.7-10.3-11.9-12.9a.44.44,0,0,0-.5.1.52.52,0,0,0-.2.4v.1c2.8,11.8,8.1,15.1,12.2,15.8.1,1.1.2,2.3.2,3.5a38.66,38.66,0,0,1-.3,4.8C43.8,169.8,8.6,183.5,7.8,183.8a.55.55,0,0,0-.3.5v.2a.55.55,0,0,0,.6.4c26.1-5.8,56.2-6.5,80.6-1.2l-.2.1c-10,2.4-17.8,6-21.4,10a7.72,7.72,0,0,0-2.2,4.9,7.29,7.29,0,0,0,2.5,5.2.52.52,0,0,0,.4.2.76.76,0,0,0,.4-.2A261.14,261.14,0,0,1,89,184.7c.7-.2,1.5-.3,2.2-.5a103.21,103.21,0,0,1,13.6,4.2c-3.1,5.9-13.2,25.4-13.2,25.4l-.1.2a.52.52,0,0,0,.2.4.62.62,0,0,0,.7-.1,183.77,183.77,0,0,0,18.1-23.4c8.5,4.1,15.4,9.4,19.8,16-2.1,16.7-4.6,30.7-6.5,41.8l-1.9,11.5v.1a.55.55,0,0,0,.3.5.48.48,0,0,0,.6-.2c9.4-12.9,14.1-24.9,14.1-35.6a32.3,32.3,0,0,0-5.4-18.1l-.2-.2c1-7.7,1.9-16,2.6-24.7,18.3,1.8,34.2,7.3,45.3,15.7a.49.49,0,0,0,.7-.1.37.37,0,0,0,.1-.3.6.6,0,0,0-.1-.4l-43.3-45.7q4.95-2.85,10.2-5.4c23.5,29.2,59.4,51.3,109.7,67.4a.48.48,0,0,0,.6-.2l.1-.3a.76.76,0,0,0-.2-.4c-.6-.5-31.2-28.9-68.5-59.3l56.3,23.6a.62.62,0,0,0,.7-.2.66.66,0,0,0-.2-.7c-.3-.2-26.4-16.6-27.6-30.9,0-.4,0-.4-3.9-1.1l-9.3-1.7-28.2-5.1-6-1.1c15.5-5.3,31.7-8.4,47.8-7.6a.47.47,0,0,0,.5-.5v-.1c0-.2-.2-.5-.4-.5-16.9-2.9-31.1-8.8-41.2-16.9l6.6-3.3A81.34,81.34,0,0,1,205.2,121.3Zm93.3-77.9c-59.2,45.6-89.6,73.5-93,76.7a91.62,91.62,0,0,0-20.1-13.8C225.1,86.8,265.2,65.1,298.5,43.4ZM81.6,125.3c5.3,2.5,8.8,6.4,10.3,11.7a15.53,15.53,0,0,1,.4,2.1C87.4,138,83.8,133.3,81.6,125.3ZM68.1,202.6a6.06,6.06,0,0,1-1.8-4.1,6.16,6.16,0,0,1,1.9-4.2c3.1-3.6,9.9-6.7,18.7-9.1C76.5,194.1,69.7,201,68.1,202.6Zm130-126.5c-13.3,10.8-28.9,23.5-29.8,24.2a.37.37,0,0,1-.3-.1c-.3-.5-.7-.9-1-1.4C171.1,95.8,186,84.9,198.1,76.1Zm-39.1,63c-9.6-4-16.6-7-18.6-7.8,5.4,1,15.1,2.7,25.8,4.7.1.1.2.1.3.2C163.9,137.1,161.5,138.1,159,139.1Zm-21.7-9.5-.2-.2c4.2-1.9,8.4-3.9,12.6-5.9,4.8,3.6,9.7,7.3,14.5,11Zm-.8-15.7,5.2,3.7c-2.4,4.6-2.4,4.7-4.8,9.3a2.18,2.18,0,0,1-.5.4c0-3-.1-6-.1-9.1,0-1.3.2-2.5.2-3.8C136.6,114.3,136.5,114.1,136.5,113.9Zm30.8-12.7c-1.8,1.5-10.3,8.8-21.4,18.2-.9-.7-1.8-1.3-2.8-2,2.3-4.3,2.3-4.4,4.5-8.7a156.09,156.09,0,0,0,16.5-8.1C165.1,100.8,166.2,101,167.3,101.2Zm-21.4,19.5c1,.7,1.9,1.4,2.9,2.1-3.8,1.8-7.5,3.5-11.3,5.3a2.57,2.57,0,0,0,.2-.5C141.6,124.4,142.8,123.4,145.9,120.7Zm-6.8,4.4,3.6-6.8,2.4,1.8C143.1,121.7,141.1,123.4,139.1,125.1Zm3.2-8.4c-1.9-1.4-3.8-2.7-5.7-4,3.1-.9,6.3-2.1,9.6-3.4C144.2,113,144.2,113,142.3,116.7Zm4.5,3.3c8-6.8,21-17.9,21.2-18a53.32,53.32,0,0,0,7.8,8c-8.7,4.2-17.3,8.4-25.8,12.4C148.9,121.5,147.8,120.7,146.8,120Zm42-93c-.8,1.5-16.3,31.4-28.2,54.3-.1-1.2-.3-2.5-.3-3.7C160.4,61.6,170.3,44,188.8,27ZM160.1,84.6c.2,1.1.4,2.3.7,3.4a35.56,35.56,0,0,0,4.8,10.5l-.2.2c-.5.3-.9.5-1.4.8a62.42,62.42,0,0,0-11.2-.6C156.2,92.1,156.9,90.8,160.1,84.6Zm-8,15.4a71.79,71.79,0,0,1,10.2.4c-4.8,2.6-9.5,4.9-14,6.9C150.2,103.7,150.3,103.5,152.1,100Zm-10.7,1.3A65.57,65.57,0,0,1,151,100l-4.1,7.8c-3.5,1.5-7,2.7-10.4,3.8-.1-2.9-.3-5.9-.6-8.9C137.6,102.2,139.5,101.7,141.4,101.3Zm-5.8,31.9c0,5.4-.1,10.7-.2,15.9l-3.3-3.5a122.19,122.19,0,0,0,2.8-12.3c.3-.7.4-.7.7-1.3Zm-14.2,26c3.2-6.2,4.2-8.1,7.8-15.1.8.8.8.9,1.6,1.7q-1.35,4.8-3,9.3C125.6,156.5,123.5,157.9,121.4,159.2Zm11.5-29c-3.6,1.7-7.2,3.3-10.7,4.9l-7.4-7.8c.1-.2.3-.3.4-.5Zm-17-4.3c1.1-1.4,2.3-2.9,3.4-4.5,7.7,4.2,13.1,7.2,14.3,7.9C129.9,128.6,123.5,127.4,115.9,125.9Zm14.5,6.6-6,5.1c-.8-.8-.8-.8-1.6-1.7C125.4,134.8,127.9,133.7,130.4,132.5Zm3.5-1.6.3-.1c-.1.7-.2,1.5-.3,2.2-2.4,4.6-2.6,5-4.9,9.4l-3.8-4C129.5,134.6,129.7,134.5,133.9,130.9Zm-.8,5.8c-.6,2.7-1.2,5.4-1.9,8-.7-.7-.7-.8-1.4-1.5C131.3,140.1,131.5,139.8,133.1,136.7Zm-1.4,10.1,3.6,3.8v.2c-2,1.2-4,2.3-6,3.5C130.1,151.8,131,149.3,131.7,146.8Zm3.6-28.8c-.1,2.5-.2,4.9-.5,7.3-2-3.6-3.9-7.2-5.6-10.8,1.9-.4,3.9-.9,5.9-1.5C135.2,114.7,135.3,116.4,135.3,118Zm-.2-6.4c-2.4-1.7-4.8-3.3-7.2-4.9l.6-1.2q2.85-1.2,6.3-2.4C134.9,106,135,108.8,135.1,111.6ZM121.9,10c12.1,13.6,16.8,30.4,16.8,47.2a105.07,105.07,0,0,1-4.3,29.1A485.9,485.9,0,0,0,121.9,10Zm12.6,90.8c0,.4.1.9.1,1.3a58.08,58.08,0,0,0-5.5,2q2.25-5,4.2-10.5Q134,97.2,134.5,100.8Zm-20.3,11.6c0-.2.1-.4.1-.6,0-7.5-8-15.8-13.1-20.3,7.2,4,15,8.7,23,14a1.45,1.45,0,0,1,.2.7A69,69,0,0,0,114.2,112.4Zm10.9-7.5c-7.4-19-11-38.1-13.4-55.7,11.2,14.2,17.9,28.5,21.2,42.5a117.37,117.37,0,0,1-5.2,13c-.6.3-1.1.5-1.7.8Zm1,5.3c.5,1.2,1.1,2.5,1.6,3.7-1.4.3-2.7.5-4.1.7A27.57,27.57,0,0,0,126.1,110.2Zm-3.1,5.5a51.58,51.58,0,0,0,5.2-.9c1.9,4.1,4.1,8.2,6.4,12.3-.1.5-.1,1-.2,1.5l-14.6-8A51.44,51.44,0,0,0,123,115.7Zm-1.3.2c-.9,1.5-1.8,2.8-2.7,4.2l-6.8-3.8A61.94,61.94,0,0,0,121.7,115.9Zm-14.3-1a45.07,45.07,0,0,1-5.3-.9c-1.3-1.4-2.6-2.8-4-4.2C101.3,111.5,104.4,113.3,107.4,114.9Zm-7.2-1.4a29.93,29.93,0,0,1-3.2-1A49.23,49.23,0,0,1,76.4,97.8c6.2,3.4,12.6,6.9,18.7,10.3Zm-39.7,1.9c0-.4.1-.9.1-1.3,0-13.9-19.3-32.7-27.6-40.2,3.3,1.8,21.1,11.6,40.9,22.5q9.75,12.3,22.8,17.1a39.43,39.43,0,0,0,4.9,1.4c4.6,4.8,5.7,6,9.6,10.1C90.4,121.1,64,116.1,60.5,115.4Zm52.4,10c-4.2-4.5-5-5.3-9.5-10.1,2.1.4,4.2.7,6.4.9,3.1,1.7,6,3.3,8.6,4.7-1.2,1.7-2.4,3.3-3.7,4.8ZM93.6,140.3c6.1.4,13.4-4.1,20.5-12.1l7.1,7.5c-9.6,4.3-18.8,8.5-27.7,12.3a30,30,0,0,0,.1-7.7Zm-.3,8.9c9.1-4,18.7-8.3,28.6-12.7.9.9.9.9,1.8,1.9-16.3,13.8-32.2,27.4-38.1,32.4C88,166.3,92,157.9,93.3,149.2ZM82.2,181c-21.1-3.6-45.2-3-68.5,1.5,11.5-4.6,41-16.4,78.5-32.9a67.17,67.17,0,0,1-9.3,23.3.37.37,0,0,0-.1.3.76.76,0,0,0,.2.4.48.48,0,0,0,.7,0s20.4-17.3,40.7-34.6c2,2.2,2.1,2.2,4.1,4.3-4.1,7.9-5.3,10.1-8.8,17-1.6,1.1-3.2,2.1-4.8,3.2-9.5,6.5-17.9,13.1-24.9,19C87.4,182,84.9,181.5,82.2,181Zm9.1,1.9c7.6-6.3,16.8-13.4,27.2-20.4-3.7,7.1-6.6,12.8-9.3,17.9a132.35,132.35,0,0,0-17.7,2.5Zm2.5.7a129.12,129.12,0,0,1,14.8-2c-.9,1.6-2.3,4.4-3,5.8A90.76,90.76,0,0,0,93.8,183.6Zm16.7,5.9c-1.3-.6-2.5-1.2-3.9-1.8.8-1.5,2.3-4.5,3.3-6.3,1.9-.1,3.8-.3,5.8-.3C113.9,184.1,112.2,186.9,110.5,189.5Zm25.8,35.3c0,9.9-4.2,21.1-12.6,33,.5-3,1.6-9.1,1.6-9.1,1.9-10.8,4.2-24.4,6.3-40.5A31.09,31.09,0,0,1,136.3,224.8Zm-5.4-19.5c-4.4-6-11-11.2-19.5-15.3,1.8-2.8,3.6-5.8,5.4-8.9a150.75,150.75,0,0,1,16.6.6C132.7,190,131.9,197.9,130.9,205.3Zm2.6-24.6a140.88,140.88,0,0,0-16.1-.6A158.09,158.09,0,0,0,128.6,156c2.1-1.3,4.3-2.6,6.5-3.9C134.9,162.1,134.3,171.6,133.5,180.7ZM176.4,194c-10.9-7-25.4-11.6-41.8-13.2.8-9.2,1.4-18.9,1.7-29.1C154.8,171.2,174.2,191.7,176.4,194ZM145,141c-2.3-3.1-4.5-6.2-6.5-9.4l19.1,8c-3.4,1.5-6.8,3-10.1,4.6C146.7,143.2,145.9,142.1,145,141Zm110.1,70.3c-48.8-16-83.8-37.6-106.8-66.2,3.5-1.7,7.1-3.4,10.8-4.9l26.6,11.2C219.3,178.7,247.9,204.7,255.1,211.3Zm-37.8-66.1c1.2,11.1,15.9,22.9,23.5,28.3-4.6-1.9-30.3-12.7-54.6-22.9-5.8-4.7-11.7-9.4-17.6-14l.3-.1C190.1,140.2,214.2,144.6,217.3,145.2Zm-4.5-18.3c-15.1.1-30,3.4-44.1,8.4l-2.2-.4c-5.2-4-10.5-8-15.7-11.9,8.5-4,17.1-8.1,25.7-12.3C185.7,118,198.1,123.6,212.8,126.9Zm-36-17.4a54.22,54.22,0,0,1-7.9-8,67.82,67.82,0,0,1,14.1,4.9C181,107.4,178.9,108.4,176.8,109.5Z"/><rect class="cls-1" x="189.1" y="227.7" width="5.7" height="5.7"/><rect class="cls-1" x="189.1" y="237.4" width="5.7" height="26.7"/><path class="cls-1" d="M220.2,240.8a9,9,0,0,0-8-4.2c-7.2,0-11.8,5.5-11.8,14.1,0,8.3,4.6,13.9,11.7,13.9a9.09,9.09,0,0,0,8-4v3.1c0,4.6-1.8,6.8-7.2,6.8-3.6,0-5.6-1.2-5.7-3.5h-5.8c.1,5,4.2,8.2,11.6,8.2,9.4,0,12.7-3.9,12.7-12.2V237.4h-5.4v3.4Zm-6.9,18.9c-4.5,0-7-3.2-7-9.3,0-5.6,2.6-8.9,6.8-8.9,4.7,0,7.2,3.1,7.2,9.2S217.9,259.7,213.3,259.7Z"/><path class="cls-1" d="M246.2,236.8a9.72,9.72,0,0,0-8.2,4.3v-3.6h-5.5v26.7h5.7V248.7c0-4.5,2.6-7,6.8-7,3.1,0,4.9,1.8,4.9,5v17.5h5.7v-17C255.6,240.4,253.7,236.8,246.2,236.8Z"/><rect class="cls-1" x="262.5" y="227.7" width="5.7" height="5.7"/><rect class="cls-1" x="262.5" y="237.4" width="5.7" height="26.7"/><path class="cls-1" d="M281.5,230.1h-5.6v7.4H272v4.2h3.8v16.4c0,4.5,1.4,6.4,6.1,6.4,1.2,0,2.5-.2,4-.3v-4.5l-1.1.1h-1.1c-1.9,0-2.2-.7-2.2-2.4V241.7H286v-4.2h-4.5Z"/><path class="cls-1" d="M301.7,236.6c-7.8,0-12.5,5.3-12.5,14.1,0,9,4.8,14.3,12.3,14.3,6.2,0,10.9-3.8,11.9-9.3h-5.6a5.76,5.76,0,0,1-5.9,4.4c-4.2,0-6.7-2.7-6.8-7.8h18.7a14.09,14.09,0,0,0,.1-2C313.9,241.6,309.1,236.6,301.7,236.6Zm-6.6,11.6c.4-4.4,2.6-6.8,6.4-6.8,4,0,6.3,2.4,6.4,6.8Z"/><path class="cls-1" d="M342.1,260.3l-8.5-22.5h-3.2l10.2,26.6-1.2,3.3c-1.1,3-2,4.5-4.6,4.5a12.27,12.27,0,0,1-2.1-.4v2.8a8.18,8.18,0,0,0,2.1.3c3.6,0,5.6-1.7,7-5.7l11.7-31.4h-3.1Z"/><path class="cls-1" d="M367.7,237.2c-7.7,0-12.1,5-12.1,13.8s4.4,13.8,12.1,13.8,12.1-5,12.1-13.8S375.4,237.2,367.7,237.2Zm0,24.9c-5.6,0-8.9-3.9-8.9-11.1s3.3-11.2,8.9-11.2,9,4,9,11.2S373.3,262.1,367.7,262.1Z"/><path class="cls-1" d="M402.4,253.4c0,5.4-3.1,8.8-8.2,8.8-4.8,0-6.4-2.3-6.4-7.3v-17h-3v17.7c0,6.2,2.9,9.3,8.9,9.3a9.49,9.49,0,0,0,8.8-4.9v4.2h2.9V237.9h-3v15.5Z"/><path class="cls-1" d="M414.9,242.4v-4.6H412v26.3h3V249.5c0-6.1,2.7-9.2,8-9.2h.4v-3.1H423A8.11,8.11,0,0,0,414.9,242.4Z"/><path class="cls-1" d="M452.6,237.2a9.87,9.87,0,0,0-9.2,5.3V227.7h-3v36.5h3v-4.6a9.74,9.74,0,0,0,9,5.3c7.2,0,11.9-5.1,11.9-13.8S459.7,237.2,452.6,237.2Zm-.5,25c-5.6,0-8.9-4.1-8.9-11.2,0-7.3,3.3-11.2,8.9-11.2s9,4,9,11.2S457.8,262.2,452.1,262.2Z"/><path class="cls-1" d="M472.2,242.4v-4.6h-2.9v26.3h3V249.5c0-6.1,2.7-9.2,8-9.2h.4v-3.1h-.4C476.5,237.2,473.7,238.8,472.2,242.4Z"/><path class="cls-1" d="M504.5,259.5V245.2c0-5.2-3.3-8-9.6-8s-10.3,3.3-10.5,8.5h3c.2-3.9,2.7-5.8,7.5-5.8s6.5,1.8,6.5,5.7c0,2.7-.9,2.6-4.6,3.4-3.5.3-6.7.4-9.5,1.6a6.9,6.9,0,0,0-4.2,6.6c0,4.6,3.3,7.6,8.7,7.6a12.86,12.86,0,0,0,9.7-4.5v.4c0,2.4,1.3,3.7,3.7,3.7a12.22,12.22,0,0,0,2.2-.3v-2.3a5.38,5.38,0,0,1-1.1.1C504.6,261.9,504.5,261.2,504.5,259.5Zm-12.3,2.6c-3.7,0-5.9-2-5.9-5,0-2.7,2-4.6,5.9-5.6,3.9-.2,7-.4,9.3-1.3l.1,3.7C501.5,259.1,497.7,262.1,492.2,262.1Z"/><path class="cls-1" d="M522.9,237.2a9.44,9.44,0,0,0-8.7,4.9v-4.2h-2.9v26.3h3V248.7c0-5.5,3.2-8.8,8-8.8,5.4,0,6.5,2.5,6.5,7.9v16.4h3V247.4c0-2.8,0-4.9-1.1-6.5C529.4,238.5,526.6,237.2,522.9,237.2Z"/><path class="cls-1" d="M557.7,242.4a9.71,9.71,0,0,0-9.1-5.2c-7,0-11.7,5.1-11.7,13.8s4.6,13.8,11.5,13.8a10.14,10.14,0,0,0,9.3-5.2v4.5h3V227.6h-3v14.8Zm-8.6,19.8c-5.6,0-9-4.1-9-11.2s3.3-11.2,9-11.2,8.9,4,8.9,11.2S554.8,262.2,549.1,262.2Z"/><path class="cls-1" d="M576.3,232.8h3.9c1.7,0,2.6.7,2.6,2.3a1.8,1.8,0,0,1-1.2,1.9c.8.3,1,.8,1,1.7v.9c0,.5,0,.7.3.9v.2h-1.8a2.51,2.51,0,0,1-.2-1v-.8c0-.9-.3-1.3-1.2-1.3h-1.8v3.1h-1.6v-7.9Zm3.6,3.5c.8,0,1.2-.3,1.2-1.1a1,1,0,0,0-1.1-1.1h-2v2.1h1.9Z"/><path class="cls-1" d="M579.6,245.5a8.7,8.7,0,1,1,8.7-8.7A8.71,8.71,0,0,1,579.6,245.5Zm0-16.4a7.7,7.7,0,1,0,7.7,7.7A7.77,7.77,0,0,0,579.6,229.1Z"/></svg>