<svg id="Layer_1" data-name="Layer 1" xmlns="http://www.w3.org/2000/svg" viewBox="0 0 420 69"><defs><style>.cls-1{fill:#fff;}</style></defs><title>Artboard 4</title><rect class="cls-1" x="11" y="12.4" width="5.7" height="5.7"/><rect class="cls-1" x="11" y="22.1" width="5.7" height="26.7"/><path class="cls-1" d="M42.1,25.5a9,9,0,0,0-8-4.2c-7.2,0-11.8,5.5-11.8,14.1,0,8.3,4.6,13.9,11.7,13.9a9.09,9.09,0,0,0,8-4v3.1c0,4.6-1.8,6.8-7.2,6.8-3.6,0-5.6-1.2-5.7-3.5H23.3c.1,5,4.2,8.2,11.6,8.2,9.4,0,12.7-3.9,12.7-12.2V22.1H42.2v3.4ZM35.2,44.4c-4.5,0-7-3.2-7-9.3,0-5.6,2.6-8.9,6.8-8.9,4.7,0,7.2,3.1,7.2,9.2S39.8,44.4,35.2,44.4Z"/><path class="cls-1" d="M68.1,21.5a9.72,9.72,0,0,0-8.2,4.3V22.2H54.4V48.9h5.7V33.4c0-4.5,2.6-7,6.8-7,3.1,0,4.9,1.8,4.9,5V48.9h5.7v-17C77.5,25.1,75.6,21.5,68.1,21.5Z"/><rect class="cls-1" x="84.4" y="12.4" width="5.7" height="5.7"/><rect class="cls-1" x="84.4" y="22.1" width="5.7" height="26.7"/><path class="cls-1" d="M103.4,14.8H97.8v7.4H93.9v4.2h3.8V42.8c0,4.5,1.4,6.4,6.1,6.4,1.2,0,2.5-.2,4-.3V44.4l-1.1.1h-1.1c-1.9,0-2.2-.7-2.2-2.4V26.4h4.5V22.2h-4.5Z"/><path class="cls-1" d="M123.6,21.3c-7.8,0-12.5,5.3-12.5,14.1,0,9,4.8,14.3,12.3,14.3,6.2,0,10.9-3.8,11.9-9.3h-5.6a5.76,5.76,0,0,1-5.9,4.4c-4.2,0-6.7-2.7-6.8-7.8h18.7a14.09,14.09,0,0,0,.1-2C135.8,26.3,131,21.3,123.6,21.3ZM117,32.9c.4-4.4,2.6-6.8,6.4-6.8,4,0,6.3,2.4,6.4,6.8Z"/><path class="cls-1" d="M164,45l-8.5-22.5h-3.2l10.2,26.6-1.2,3.3c-1.1,3-2,4.5-4.6,4.5a12.27,12.27,0,0,1-2.1-.4v2.8a8.18,8.18,0,0,0,2.1.3c3.6,0,5.6-1.7,7-5.7l11.7-31.4h-3.1Z"/><path class="cls-1" d="M189.6,21.9c-7.7,0-12.1,5-12.1,13.8s4.4,13.8,12.1,13.8,12.1-5,12.1-13.8S197.3,21.9,189.6,21.9Zm0,24.9c-5.6,0-8.9-3.9-8.9-11.1s3.3-11.2,8.9-11.2,9,4,9,11.2S195.2,46.8,189.6,46.8Z"/><path class="cls-1" d="M224.3,38.1c0,5.4-3.1,8.8-8.2,8.8-4.8,0-6.4-2.3-6.4-7.3v-17h-3V40.3c0,6.2,2.9,9.3,8.9,9.3a9.49,9.49,0,0,0,8.8-4.9v4.2h2.9V22.6h-3V38.1Z"/><path class="cls-1" d="M236.8,27.1V22.5h-2.9V48.8h3V34.2c0-6.1,2.7-9.2,8-9.2h.4V21.9h-.4A8.11,8.11,0,0,0,236.8,27.1Z"/><path class="cls-1" d="M274.5,21.9a9.87,9.87,0,0,0-9.2,5.3V12.4h-3V48.9h3V44.3a9.74,9.74,0,0,0,9,5.3c7.2,0,11.9-5.1,11.9-13.8S281.6,21.9,274.5,21.9Zm-.5,25c-5.6,0-8.9-4.1-8.9-11.2,0-7.3,3.3-11.2,8.9-11.2s9,4,9,11.2S279.7,46.9,274,46.9Z"/><path class="cls-1" d="M294.1,27.1V22.5h-2.9V48.8h3V34.2c0-6.1,2.7-9.2,8-9.2h.4V21.9h-.4C298.4,21.9,295.6,23.5,294.1,27.1Z"/><path class="cls-1" d="M326.4,44.2V29.9c0-5.2-3.3-8-9.6-8s-10.3,3.3-10.5,8.5h3c.2-3.9,2.7-5.8,7.5-5.8s6.5,1.8,6.5,5.7c0,2.7-.9,2.6-4.6,3.4-3.5.3-6.7.4-9.5,1.6a6.9,6.9,0,0,0-4.2,6.6c0,4.6,3.3,7.6,8.7,7.6a12.86,12.86,0,0,0,9.7-4.5v.4c0,2.4,1.3,3.7,3.7,3.7a12.22,12.22,0,0,0,2.2-.3V46.5a5.38,5.38,0,0,1-1.1.1C326.5,46.6,326.4,45.9,326.4,44.2Zm-12.3,2.6c-3.7,0-5.9-2-5.9-5,0-2.7,2-4.6,5.9-5.6,3.9-.2,7-.4,9.3-1.3l.1,3.7C323.4,43.8,319.6,46.8,314.1,46.8Z"/><path class="cls-1" d="M344.8,21.9a9.44,9.44,0,0,0-8.7,4.9V22.6h-2.9V48.9h3V33.4c0-5.5,3.2-8.8,8-8.8,5.4,0,6.5,2.5,6.5,7.9V48.9h3V32.1c0-2.8,0-4.9-1.1-6.5C351.3,23.2,348.5,21.9,344.8,21.9Z"/><path class="cls-1" d="M379.6,27.1a9.71,9.71,0,0,0-9.1-5.2c-7,0-11.7,5.1-11.7,13.8s4.6,13.8,11.5,13.8a10.14,10.14,0,0,0,9.3-5.2v4.5h3V12.3h-3V27.1ZM371,46.9c-5.6,0-9-4.1-9-11.2s3.3-11.2,9-11.2,8.9,4,8.9,11.2S376.7,46.9,371,46.9Z"/><path class="cls-1" d="M398.2,17.5h3.9c1.7,0,2.6.7,2.6,2.3a1.8,1.8,0,0,1-1.2,1.9c.8.3,1,.8,1,1.7v.9c0,.5,0,.7.3.9v.2H403a2.51,2.51,0,0,1-.2-1v-.8c0-.9-.3-1.3-1.2-1.3h-1.8v3.1h-1.6V17.5Zm3.6,3.5c.8,0,1.2-.3,1.2-1.1a1,1,0,0,0-1.1-1.1h-2v2.1h1.9Z"/><path class="cls-1" d="M401.5,30.2a8.7,8.7,0,1,1,8.7-8.7A8.71,8.71,0,0,1,401.5,30.2Zm0-16.4a7.7,7.7,0,1,0,7.7,7.7A7.77,7.77,0,0,0,401.5,13.8Z"/></svg>